<mxfile host="app.diagrams.net" modified="2023-06-08T01:40:59.423Z" agent="Mozilla/5.0 (Windows NT 10.0; Win64; x64) AppleWebKit/537.36 (KHTML, like Gecko) Chrome/114.0.0.0 Safari/537.36" version="21.3.7" etag="QY6SbK_ffrZrfCf3lkQs" type="github">
  <diagram name="Page-1" id="86HfF-0Sa7zbyH_2bTuj">
    <mxGraphModel>
      <root>
        <mxCell id="0" />
        <mxCell id="1" parent="0" />
      </root>
    </mxGraphModel>
  </diagram>
</mxfile>
